HIERARCHY
ROOT Hips
{
	OFFSET 0.000000 8.830580 0.000000
	CHANNELS 6 Xposition Yposition Zposition Zrotation Yrotation Xrotation 
	JOINT Spine
	{
		OFFSET 0.000000 0.010000 0.000000
		CHANNELS 3 Zrotation Yrotation Xrotation
		JOINT Spine1
		{
			OFFSET 0.000000 2.459130 0.000000
			CHANNELS 3 Zrotation Yrotation Xrotation
			JOINT Neck
			{
				OFFSET 0.000000 2.484630 0.000000
				CHANNELS 3 Zrotation Yrotation Xrotation
				JOINT Head_virtual
				{
					OFFSET 0.000000 0.000000 0.000000
					CHANNELS 3 Zrotation Yrotation Xrotation
					JOINT Head
					{
						OFFSET 0.000000 0.927525 0.000000
						CHANNELS 3 Zrotation Yrotation Xrotation
						End Site
						{
							OFFSET 0.000000 0.000000 0.000000
						}
					}
				}
				JOINT LeftUpArm_virtual
				{
					OFFSET 0.000000 0.000000 0.000000
					CHANNELS 3 Zrotation Yrotation Xrotation
					JOINT LeftUpArm
					{
						OFFSET 1.248820 0.000000 0.000000
						CHANNELS 3 Zrotation Yrotation Xrotation
						JOINT LeftForeArm
						{
							OFFSET 2.597580 0.000000 0.000000
							CHANNELS 3 Zrotation Yrotation Xrotation
							JOINT LeftHand
							{
								OFFSET 2.455420 0.000000 0.000000
								CHANNELS 3 Zrotation Yrotation Xrotation
								End Site
								{
									OFFSET 0.000000 0.000000 0.000000
								}
							}
						}
					}
				}
				JOINT RightUpArm_virtual
				{
					OFFSET -0.000000 -0.000000 -0.000000
					CHANNELS 3 Zrotation Yrotation Xrotation
					JOINT RightUpArm
					{
						OFFSET -1.248820 -0.000000 -0.000000
						CHANNELS 3 Zrotation Yrotation Xrotation
						JOINT RightForeArm
						{
							OFFSET -2.597580 -0.000000 -0.000000
							CHANNELS 3 Zrotation Yrotation Xrotation
							JOINT RightHand
							{
								OFFSET -2.455420 -0.000000 -0.000000
								CHANNELS 3 Zrotation Yrotation Xrotation
								End Site
								{
									OFFSET 0.000000 0.000000 0.000000
								}
							}
						}
					}
				}
			}
		}
	}
	JOINT LeftUpLeg
	{
		OFFSET 1.271939 0.000000 0.000000
		CHANNELS 3 Zrotation Yrotation Xrotation
		JOINT LeftLowLeg
		{
			OFFSET 0.000000 -4.342910 0.000000
			CHANNELS 3 Zrotation Yrotation Xrotation
			JOINT LeftFoot
			{
				OFFSET 0.000000 -4.487670 0.000000
				CHANNELS 3 Zrotation Yrotation Xrotation
				JOINT LeftToeBase
				{
					OFFSET 0.000000 0.000000 1.515070
					CHANNELS 3 Zrotation Yrotation Xrotation
					End Site
					{
						OFFSET 0.000000 0.000000 0.000000
					}
				}
			}
		}
	}
	JOINT RightUpLeg
	{
		OFFSET -1.271939 0.000000 0.000000
		CHANNELS 3 Zrotation Yrotation Xrotation
		JOINT RightLowLeg
		{
			OFFSET 0.000000 -4.342910 0.000000
			CHANNELS 3 Zrotation Yrotation Xrotation
			JOINT RightFoot
			{
				OFFSET 0.000000 -4.487670 0.000000
				CHANNELS 3 Zrotation Yrotation Xrotation
				JOINT RightToeBase
				{
					OFFSET 0.000000 0.000000 1.515070
					CHANNELS 3 Zrotation Yrotation Xrotation
					End Site
					{
						OFFSET 0.000000 0.000000 0.000000
					}
				}
			}
		}
	}
}
MOTION
Frames: 7
Frame Time: 0.041667
-24.222527 9.300680 56.710934 -144.027783 77.322299 -143.198707 6.907085 2.167440 -19.522634 -9.384376 0.686910 36.081202 0.000000 0.000000 0.000000 1.689487 8.453138 0.062366 1.458408 9.569529 -57.479085 -26.211700 -4.136300 -9.725440 -34.494499 -3.648780 35.932800 0.000000 -25.319700 0.000000 9.244540 7.335440 2.258380 32.579498 -0.208658 -5.903320 41.223202 1.684380 23.498501 0.000000 31.426399 0.000000 -7.206190 0.367604 -7.973000 4.278260 27.172549 7.749691 0.000000 0.000000 -2.495090 -3.131884 10.402106 7.693399 0.000000 0.000000 -9.085550 4.424218 19.749844 -8.201201 0.000000 0.000000 10.119000 10.803022 -14.917201 20.246082 0.000000 0.000000 -13.434730 
-24.240999 9.301093 56.720360 -143.507173 77.507250 -142.510282 6.824832 2.213686 -19.324595 -9.583795 0.719341 36.228807 0.000000 0.000000 0.000000 1.778521 8.476131 -0.324240 1.250762 9.827510 -57.627046 -26.059299 -4.060910 -9.961000 -34.571899 -3.482890 35.909199 0.000000 -24.833900 0.000000 9.494540 7.145260 2.454740 32.658699 -0.239786 -5.943800 41.318901 1.621650 23.746300 0.000000 31.573700 0.000000 -7.192970 0.373574 -7.884960 4.155012 27.289233 7.464397 0.000000 0.000000 -2.484520 -3.116608 10.483096 7.706646 0.000000 0.000000 -9.102420 4.557630 19.005273 -8.333054 0.000000 0.000000 9.792680 10.601031 -15.053589 20.533696 0.000000 0.000000 -13.704330 
-24.257198 9.299952 56.731397 -143.390463 77.610722 -142.202246 6.716266 2.160237 -19.154343 -9.781648 0.699379 36.397445 0.000000 0.000000 0.000000 1.769815 8.581503 -0.738166 1.114677 10.056198 -57.799417 -25.866501 -3.989540 -10.053900 -34.624100 -3.417730 35.779301 0.000000 -24.450800 0.000000 9.172190 7.166660 2.084430 32.670399 -0.249385 -5.783900 41.483501 1.665840 23.810699 0.000000 31.662300 0.000000 -7.101100 0.435952 -7.813460 4.001038 27.264134 7.154218 0.000000 0.000000 -2.490790 -3.069323 10.595583 7.704930 0.000000 0.000000 -9.095150 4.714661 18.102029 -8.480740 0.000000 0.000000 9.532210 10.377357 -15.258425 20.679670 0.000000 0.000000 -14.099040 
-24.274913 9.299359 56.742918 -143.086018 77.711232 -141.709655 6.682214 2.265962 -18.910046 -10.035789 0.723729 36.526087 0.000000 0.000000 0.000000 1.888087 8.602318 -0.984073 0.917129 10.321990 -58.196876 -25.741699 -3.991150 -9.922210 -34.528198 -3.542840 35.657299 0.000000 -24.183500 0.000000 8.950180 7.433030 1.733840 32.771599 -0.263996 -5.919880 41.643101 1.432720 24.062799 0.000000 31.739300 0.000000 -7.385920 0.353874 -7.921790 3.871496 27.183149 6.770021 0.000000 0.000000 -2.344030 -3.010278 10.744548 7.603083 0.000000 0.000000 -9.162240 4.936158 17.164470 -8.574374 0.000000 0.000000 9.151550 10.167229 -15.682426 20.742561 0.000000 0.000000 -13.923510 
-24.292361 9.297871 56.754532 -142.990398 77.829284 -141.426930 6.683412 2.438090 -18.632588 -10.482219 0.722248 36.698194 0.000000 0.000000 0.000000 2.070243 8.630403 -1.369739 0.692885 10.692765 -58.514551 -25.510900 -3.891160 -9.737940 -34.464901 -3.867530 35.683800 0.000000 -23.954500 0.000000 8.831410 7.652650 1.793370 32.868999 -0.254695 -6.060450 41.868401 1.212660 23.982901 0.000000 31.709299 0.000000 -6.747240 0.575987 -7.793060 3.709775 27.227754 6.377219 0.000000 0.000000 -2.172780 -2.939141 10.789662 7.510136 0.000000 0.000000 -9.215240 5.120176 16.237622 -8.721530 0.000000 0.000000 8.936690 9.943753 -16.211168 20.634796 0.000000 0.000000 -13.955520 
-24.308042 9.296893 56.769180 -143.138132 77.945372 -141.407254 6.672779 2.638209 -18.298281 -11.020102 0.717204 36.876265 0.000000 0.000000 0.000000 2.315125 8.640393 -1.743381 0.483268 11.101399 -58.866568 -25.276300 -3.657180 -9.455410 -34.366699 -4.474420 35.720299 0.000000 -23.672600 0.000000 8.539680 7.721730 1.468160 33.070000 -0.305448 -6.253070 42.092400 1.004180 24.493401 0.000000 31.731800 0.000000 -7.330470 0.408042 -8.023790 3.509570 26.895621 6.011703 0.000000 0.000000 -2.040700 -2.910834 11.103616 7.467319 0.000000 0.000000 -9.181170 5.272360 15.573097 -8.880048 0.000000 0.000000 8.808390 9.616522 -16.879536 20.534346 0.000000 0.000000 -14.048430 
-24.323763 9.296598 56.785038 -143.247832 78.080745 -141.370404 6.717548 2.917880 -17.921422 -11.704513 0.676561 36.993907 0.000000 0.000000 0.000000 2.609080 8.671902 -1.853730 0.148119 11.559543 -59.329852 -24.664600 -4.836650 -10.645500 -34.296600 -2.379930 35.541801 0.000000 -23.958099 0.000000 8.519120 7.511120 2.453540 33.313400 -0.146115 -6.036310 42.283298 0.834796 24.348900 0.000000 31.746799 0.000000 -7.241730 0.335423 -8.149690 3.353036 26.758363 5.667570 0.000000 0.000000 -1.862920 -2.890994 11.291063 7.430657 0.000000 0.000000 -9.284660 5.392234 15.125103 -9.092552 0.000000 0.000000 8.809010 9.276827 -17.505325 20.453355 0.000000 0.000000 -14.006616 
